<svg xmlns="http://www.w3.org/2000/svg" version="1.1" xmlns:xlink="http://www.w3.org/1999/xlink" xmlns:svgjs="http://svgjs.com/svgjs" width="1440" height="1024" preserveAspectRatio="none" viewBox="0 0 1440 1024"><g mask="url(&quot;#SvgjsMask1009&quot;)" fill="none"><path d="M118.25 283.69 a89.31 89.31 0 1 0 178.62 0 a89.31 89.31 0 1 0 -178.62 0z" fill="rgba(227, 84, 82, 1)"></path><path d="M711.24 556.5L773.13 556.5L773.13 560.75L711.24 560.75z" stroke="rgba(26, 180, 205, 1)"></path><path d="M961.39 179.2L1034.45 179.2L1034.45 204.93L961.39 204.93z" stroke="rgba(26, 180, 205, 1)"></path><path d="M777.46 41.08a53.35 53.35 0 1 0 90.8 56.03z" fill="rgba(15, 222, 110, 1)"></path><path d="M1298.72 129.28 a43.23 43.23 0 1 0 86.46 0 a43.23 43.23 0 1 0 -86.46 0z" stroke="rgba(15, 222, 110, 1)"></path><path d="M1400.28 25.25L1466.2 25.25L1466.2 58.96L1400.28 58.96z" stroke="rgba(26, 180, 205, 1)"></path><path d="M633.5 17.76L722.86 17.76L722.86 107.12L633.5 107.12z" stroke="rgba(15, 222, 110, 1)"></path><path d="M278.72 856.91 a4.47 4.47 0 1 0 8.94 0 a4.47 4.47 0 1 0 -8.94 0z" stroke="rgba(227, 84, 82, 1)"></path><path d="M477.79 952.93L502.97 952.93L502.97 982.59L477.79 982.59z" fill="rgba(227, 84, 82, 1)"></path><path d="M876.54 1007.81L954.27 1007.81L954.27 1094.53L876.54 1094.53z" stroke="rgba(15, 222, 110, 1)"></path><path d="M586.78 665.85L625.75 665.85L625.75 693.14L586.78 693.14z" stroke="rgba(227, 84, 82, 1)"></path><path d="M5.41 737.6L58.44 737.6L58.44 790.63L5.41 790.63z" stroke="rgba(227, 84, 82, 1)"></path><path d="M94.01 116.26L155.04 116.26L155.04 177.29L94.01 177.29z" stroke="rgba(26, 180, 205, 1)"></path><path d="M1149.11 663.6L1157.96 663.6L1157.96 672.45L1149.11 672.45z" stroke="rgba(227, 84, 82, 1)"></path><path d="M473.57 830.73 a60.92 60.92 0 1 0 121.84 0 a60.92 60.92 0 1 0 -121.84 0z" fill="rgba(26, 180, 205, 1)"></path><path d="M599.71 170.75L653.84 170.75L653.84 204.38L599.71 204.38z" stroke="rgba(15, 222, 110, 1)"></path><path d="M649.15 252.75a67.17 67.17 0 1 0-134.22-5.61z" stroke="rgba(15, 222, 110, 1)"></path><path d="M711.43 492.42a52.95 52.95 0 1 0-104.04-19.77z" fill="rgba(26, 180, 205, 1)"></path></g><defs><mask id="SvgjsMask1009"><rect width="1440" height="1024" fill="#ffffff"></rect></mask></defs></svg>