<svg xmlns="http://www.w3.org/2000/svg" version="1.1" xmlns:xlink="http://www.w3.org/1999/xlink" xmlns:svgjs="http://svgjs.com/svgjs" width="1440" height="700" preserveAspectRatio="none" viewBox="0 0 1440 700"><g mask="url(&quot;#SvgjsMask1004&quot;)" fill="none"><path d="M1381.38 651.15a4.23 4.23 0 1 0 2.14 8.19z" fill="rgba(26, 180, 205, 1)"></path><path d="M655.21 388.22L665.56 388.22L665.56 402.18L655.21 402.18z" fill="rgba(26, 180, 205, 1)"></path><path d="M811.39 688.45L826.91 688.45L826.91 727.93L811.39 727.93z" fill="rgba(227, 84, 82, 1)"></path><path d="M947.02 507.42a30.65 30.65 0 1 0 43.25-43.44z" fill="rgba(15, 222, 110, 1)"></path><path d="M248.38 651.99L307.92 651.99L307.92 679L248.38 679z" fill="rgba(15, 222, 110, 1)"></path><path d="M351.48 561.41L382.16 561.41L382.16 622.25L351.48 622.25z" stroke="rgba(26, 180, 205, 1)"></path><path d="M805.41 478.58L810.22 478.58L810.22 483.39L805.41 483.39z" stroke="rgba(15, 222, 110, 1)"></path><path d="M1191.19 249.71L1209.75 249.71L1209.75 268.27L1191.19 268.27z" fill="rgba(15, 222, 110, 1)"></path><path d="M224.5 628.38a19.08 19.08 0 1 0-14.83-35.16z" fill="rgba(227, 84, 82, 1)"></path><path d="M379.4 129.28a24.78 24.78 0 1 0 48.92-7.93z" fill="rgba(26, 180, 205, 1)"></path><path d="M991.34 412.93a28.74 28.74 0 1 0-56.71-9.41z" fill="rgba(26, 180, 205, 1)"></path><path d="M143.57 50.36L169.8 50.36L169.8 105.18L143.57 105.18z" stroke="rgba(26, 180, 205, 1)"></path><path d="M573.07 529.81a45.31 45.31 0 1 0 90.6 1.76z" fill="rgba(26, 180, 205, 1)"></path><path d="M808.34 668.68L813.88 668.68L813.88 733.86L808.34 733.86z" stroke="rgba(227, 84, 82, 1)"></path><path d="M294.76 163.42a31.97 31.97 0 1 0-58.8-25.13z" fill="rgba(227, 84, 82, 1)"></path><path d="M318.84 632.99a41.48 41.48 0 1 0-14.53 81.67z" stroke="rgba(26, 180, 205, 1)"></path><path d="M897.92 438.85a14.36 14.36 0 1 0-24.34-15.24z" stroke="rgba(227, 84, 82, 1)"></path><path d="M1019.83 528.74 a39.16 39.16 0 1 0 78.32 0 a39.16 39.16 0 1 0 -78.32 0z" fill="rgba(15, 222, 110, 1)"></path><path d="M803.97 614.39 a8.89 8.89 0 1 0 17.78 0 a8.89 8.89 0 1 0 -17.78 0z" stroke="rgba(227, 84, 82, 1)"></path><path d="M85.88 312.33 a16.82 16.82 0 1 0 33.64 0 a16.82 16.82 0 1 0 -33.64 0z" fill="rgba(26, 180, 205, 1)"></path><path d="M784.85 289.19 a57.4 57.4 0 1 0 114.8 0 a57.4 57.4 0 1 0 -114.8 0z" fill="rgba(227, 84, 82, 1)"></path><path d="M801.43 521.4L868.04 521.4L868.04 588.01L801.43 588.01z" stroke="rgba(227, 84, 82, 1)"></path><path d="M1034.5 452.78 a3.22 3.22 0 1 0 6.44 0 a3.22 3.22 0 1 0 -6.44 0z" stroke="rgba(15, 222, 110, 1)"></path><path d="M915.62 61.43a28.83 28.83 0 1 0-11.94 56.41z" stroke="rgba(15, 222, 110, 1)"></path><path d="M984.49 276.27L1049.94 276.27L1049.94 342.82L984.49 342.82z" fill="rgba(227, 84, 82, 1)"></path><path d="M1331.64 498.61L1378.17 498.61L1378.17 512.92L1331.64 512.92z" fill="rgba(15, 222, 110, 1)"></path></g><defs><mask id="SvgjsMask1004"><rect width="1440" height="700" fill="#ffffff"></rect></mask></defs></svg>