<svg xmlns="http://www.w3.org/2000/svg" version="1.1" xmlns:xlink="http://www.w3.org/1999/xlink" xmlns:svgjs="http://svgjs.com/svgjs" width="1440" height="700" preserveAspectRatio="none" viewBox="0 0 1440 700"><g mask="url(&quot;#SvgjsMask1003&quot;)" fill="none"><path d="M999.04 544.16L1013.66 544.16L1013.66 571.15L999.04 571.15z" fill="rgba(227, 84, 82, 1)"></path><path d="M747.07 275.13L764.35 275.13L764.35 292.41L747.07 292.41z" fill="rgba(15, 222, 110, 1)"></path><path d="M894.71 481.1L926.31 481.1L926.31 512.7L894.71 512.7z" fill="rgba(227, 84, 82, 1)"></path><path d="M113.23 294.92L166.85 294.92L166.85 319.6L113.23 319.6z" fill="rgba(227, 84, 82, 1)"></path><path d="M533.32 402.52 a25.5 25.5 0 1 0 51 0 a25.5 25.5 0 1 0 -51 0z" stroke="rgba(227, 84, 82, 1)"></path><path d="M220.37 254.16L277.09 254.16L277.09 285.3L220.37 285.3z" fill="rgba(26, 180, 205, 1)"></path><path d="M847.62 454.51 a5.55 5.55 0 1 0 11.1 0 a5.55 5.55 0 1 0 -11.1 0z" fill="rgba(26, 180, 205, 1)"></path><path d="M448.11 316.53 a56.68 56.68 0 1 0 113.36 0 a56.68 56.68 0 1 0 -113.36 0z" stroke="rgba(227, 84, 82, 1)"></path><path d="M492.42 644.4L550.16 644.4L550.16 660.79L492.42 660.79z" stroke="rgba(15, 222, 110, 1)"></path><path d="M1020.51 577.83L1023.94 577.83L1023.94 581.26L1020.51 581.26z" stroke="rgba(15, 222, 110, 1)"></path><path d="M1085.87 669.31 a6.23 6.23 0 1 0 12.46 0 a6.23 6.23 0 1 0 -12.46 0z" stroke="rgba(26, 180, 205, 1)"></path><path d="M1211.92 155.29 a50.52 50.52 0 1 0 101.04 0 a50.52 50.52 0 1 0 -101.04 0z" fill="rgba(15, 222, 110, 1)"></path><path d="M142.22 417.93L149.12 417.93L149.12 424.83L142.22 424.83z" fill="rgba(15, 222, 110, 1)"></path><path d="M397.34 449.13a30.1 30.1 0 1 0 58.42-14.54z" stroke="rgba(227, 84, 82, 1)"></path><path d="M63.27 431L104.75 431L104.75 441.61L63.27 441.61z" fill="rgba(227, 84, 82, 1)"></path><path d="M17.64 420.82L58.58 420.82L58.58 461.76L17.64 461.76z" fill="rgba(26, 180, 205, 1)"></path><path d="M262.9 262.33 a14.81 14.81 0 1 0 29.62 0 a14.81 14.81 0 1 0 -29.62 0z" fill="rgba(15, 222, 110, 1)"></path><path d="M977.03 416.62L1045.97 416.62L1045.97 418.58L977.03 418.58z" stroke="rgba(26, 180, 205, 1)"></path><path d="M660.44 611.66L698.03 611.66L698.03 621.36L660.44 621.36z" stroke="rgba(26, 180, 205, 1)"></path><path d="M555.1 633.27L575.38 633.27L575.38 653.55L555.1 653.55z" stroke="rgba(26, 180, 205, 1)"></path><path d="M541.73 182.38L573.57 182.38L573.57 201.03L541.73 201.03z" stroke="rgba(26, 180, 205, 1)"></path><path d="M733.97 312.97L774.35 312.97L774.35 358.44L733.97 358.44z" fill="rgba(26, 180, 205, 1)"></path><path d="M431.76 487.89 a54.83 54.83 0 1 0 109.66 0 a54.83 54.83 0 1 0 -109.66 0z" fill="rgba(227, 84, 82, 1)"></path><path d="M578.51 116.4a39.71 39.71 0 1 0 78-14.96z" stroke="rgba(26, 180, 205, 1)"></path><path d="M327.46 609.06L359.15 609.06L359.15 640.75L327.46 640.75z" stroke="rgba(26, 180, 205, 1)"></path><path d="M331.7 218.62a15.06 15.06 0 1 0 18.98-23.39z" stroke="rgba(15, 222, 110, 1)"></path></g><defs><mask id="SvgjsMask1003"><rect width="1440" height="700" fill="#ffffff"></rect></mask></defs></svg>