<svg xmlns="http://www.w3.org/2000/svg" version="1.1" xmlns:xlink="http://www.w3.org/1999/xlink" xmlns:svgjs="http://svgjs.com/svgjs" width="1440" height="560" preserveAspectRatio="none" viewBox="0 0 1440 560"><g mask="url(&quot;#SvgjsMask1014&quot;)" fill="none"><rect width="60" height="60" clip-path="url(&quot;#SvgjsClipPath1015&quot;)" x="844.64" y="73.57" fill="url(#SvgjsPattern1016)" transform="rotate(60.13, 874.64, 103.57)"></rect><rect width="348" height="348" clip-path="url(&quot;#SvgjsClipPath1017&quot;)" x="189.33" y="115.9" fill="url(#SvgjsPattern1018)" transform="rotate(254.83, 363.33, 289.9)"></rect><circle r="46.666666666666664" cx="717.94" cy="355.77" stroke="#d3b714" stroke-width="2.82" stroke-dasharray="2, 2"></circle><path d="M1377.5900000000001 580.4200000000001 L1369.72 508.17L1334.8389120283812 583.1110879716191z" stroke="#d3b714" stroke-width="1" stroke-dasharray="4, 4"></path><rect width="216" height="216" clip-path="url(&quot;#SvgjsClipPath1019&quot;)" x="130.08" y="392.59" fill="url(#SvgjsPattern1020)" transform="rotate(109, 238.08, 500.59)"></rect><path d="M875.04 158.17L880.64 146.65 893.1 149.59 898.7 138.07 911.17 141 916.77 129.49 929.23 132.42M878.47 165.39L884.07 153.88 896.53 156.81 902.13 145.3 914.6 148.23 920.2 136.71 932.66 139.65M881.9 172.62L887.5 161.1 899.97 164.04 905.57 152.52 918.03 155.46 923.63 143.94 936.1 146.87" stroke="#d3b714" stroke-width="1" stroke-dasharray="2, 2"></path><path d="M965.83 335.86a5.6 5.6 0 1 0-6.5-9.12 5.6 5.6 0 1 0 6.5 9.12zM956.54 322.83a5.6 5.6 0 1 0-6.5-9.12 5.6 5.6 0 1 0 6.5 9.12zM947.25 309.8a5.6 5.6 0 1 0-6.5-9.12 5.6 5.6 0 1 0 6.5 9.12zM937.97 296.77a5.6 5.6 0 1 0-6.5-9.12 5.6 5.6 0 1 0 6.5 9.12z" fill="#d3b714"></path><circle r="46.666666666666664" cx="15.6" cy="280.35" stroke="#037b0b" stroke-width="1.62" stroke-dasharray="2, 2"></circle><path d="M842.56 390.78000000000003 L860.9399999999999 440.42L872.8766613385847 394.4733386614154z" stroke="#d3b714" stroke-width="1.55" stroke-dasharray="3, 3"></path><rect width="180" height="180" clip-path="url(&quot;#SvgjsClipPath1021&quot;)" x="0.57" y="249.72" fill="url(#SvgjsPattern1022)" transform="rotate(187.23, 90.57, 339.72)"></rect><path d="M1257.13 24L1269.91 23.2 1273.49 35.5 1286.27 34.7 1289.86 46.99 1302.64 46.2 1306.22 58.49M1252.53 30.55L1265.31 29.75 1268.89 42.04 1281.67 41.25 1285.26 53.54 1298.04 52.74 1301.62 65.04M1247.93 37.09L1260.71 36.29 1264.29 48.59 1277.08 47.79 1280.66 60.09 1293.44 59.29 1297.02 71.58" stroke="#e73635" stroke-width="1.78" stroke-dasharray="2, 2"></path><rect width="338.8" height="338.8" clip-path="url(&quot;#SvgjsClipPath1023&quot;)" x="916.14" y="208.07" fill="url(#SvgjsPattern1024)" transform="rotate(331.44, 1085.54, 377.47)"></rect></g><defs><mask id="SvgjsMask1014"><rect width="1440" height="560" fill="#ffffff"></rect></mask><pattern x="0" y="0" width="60" height="6" patternUnits="userSpaceOnUse" id="SvgjsPattern1016"><rect width="60" height="3" x="0" y="0" fill="#d3b714"></rect><rect width="60" height="3" x="0" y="3" fill="rgba(0, 0, 0, 0)"></rect></pattern><clipPath id="SvgjsClipPath1015"><circle r="15" cx="874.64" cy="103.57"></circle></clipPath><pattern x="0" y="0" width="6" height="6" patternUnits="userSpaceOnUse" id="SvgjsPattern1018"><path d="M0 6L3 0L6 6" stroke="#e73635" fill="none"></path></pattern><clipPath id="SvgjsClipPath1017"><circle r="87" cx="363.33" cy="289.9"></circle></clipPath><pattern x="0" y="0" width="216" height="6" patternUnits="userSpaceOnUse" id="SvgjsPattern1020"><rect width="216" height="3" x="0" y="0" fill="#037b0b"></rect><rect width="216" height="3" x="0" y="3" fill="rgba(0, 0, 0, 0)"></rect></pattern><clipPath id="SvgjsClipPath1019"><circle r="54" cx="238.08" cy="500.59"></circle></clipPath><pattern x="0" y="0" width="6" height="6" patternUnits="userSpaceOnUse" id="SvgjsPattern1022"><path d="M3 1L3 5M1 3L5 3" stroke="#d3b714" fill="none" stroke-width="1"></path></pattern><clipPath id="SvgjsClipPath1021"><circle r="45" cx="90.57" cy="339.72"></circle></clipPath><pattern x="0" y="0" width="7.7" height="7.7" patternUnits="userSpaceOnUse" id="SvgjsPattern1024"><path d="M0 7.7L3.85 0L7.7 7.7" stroke="#d3b714" fill="none"></path></pattern><clipPath id="SvgjsClipPath1023"><circle r="84.7" cx="1085.54" cy="377.47"></circle></clipPath></defs></svg>