<svg xmlns="http://www.w3.org/2000/svg" version="1.1" xmlns:xlink="http://www.w3.org/1999/xlink" xmlns:svgjs="http://svgjs.com/svgjs" width="1440" height="1024" preserveAspectRatio="none" viewBox="0 0 1440 1024"><g mask="url(&quot;#SvgjsMask1082&quot;)" fill="none"><path d="M988.58 118.73L995.37 118.73L995.37 125.52L988.58 125.52z" fill="rgba(15, 222, 110, 1)"></path><path d="M505.28 748.57a35.53 35.53 0 1 0-23.59 67.03z" fill="rgba(15, 222, 110, 1)"></path><path d="M806.58 373.62L831.9 373.62L831.9 398.94L806.58 398.94z" stroke="rgba(26, 180, 205, 1)"></path><path d="M135.37 355.72 a53.17 53.17 0 1 0 106.34 0 a53.17 53.17 0 1 0 -106.34 0z" stroke="rgba(26, 180, 205, 1)"></path><path d="M144.59 258.19L239.12 258.19L239.12 271.23L144.59 271.23z" fill="rgba(15, 222, 110, 1)"></path><path d="M307.14 258.47 a99.8 99.8 0 1 0 199.6 0 a99.8 99.8 0 1 0 -199.6 0z" fill="rgba(227, 84, 82, 1)"></path><path d="M281.74 52.84L303.87 52.84L303.87 92.91L281.74 92.91z" stroke="rgba(26, 180, 205, 1)"></path><path d="M117.67 498.42L158.68 498.42L158.68 539.43L117.67 539.43z" fill="rgba(26, 180, 205, 1)"></path><path d="M504.48 185.94a3.41 3.41 0 1 0 2.73-6.25z" fill="rgba(26, 180, 205, 1)"></path><path d="M725.37 201.84L769.16 201.84L769.16 210.98L725.37 210.98z" stroke="rgba(26, 180, 205, 1)"></path><path d="M167.64 789.65 a56.03 56.03 0 1 0 112.06 0 a56.03 56.03 0 1 0 -112.06 0z" fill="rgba(26, 180, 205, 1)"></path><path d="M760.27 464.75L779.37 464.75L779.37 525.01L760.27 525.01z" fill="rgba(15, 222, 110, 1)"></path><path d="M24.39 204.37a81.74 81.74 0 1 0 37.61 159.1z" stroke="rgba(15, 222, 110, 1)"></path><path d="M449.53 917.75L529.29 917.75L529.29 997.51L449.53 997.51z" fill="rgba(26, 180, 205, 1)"></path><path d="M1174.32 462.72a92.19 92.19 0 1 0 44.96 178.81z" fill="rgba(26, 180, 205, 1)"></path><path d="M1016.12 850.12 a25.15 25.15 0 1 0 50.3 0 a25.15 25.15 0 1 0 -50.3 0z" stroke="rgba(227, 84, 82, 1)"></path><path d="M341.66 910.25 a89.46 89.46 0 1 0 178.92 0 a89.46 89.46 0 1 0 -178.92 0z" fill="rgba(227, 84, 82, 1)"></path><path d="M967.3 403.91L1038.99 403.91L1038.99 475.6L967.3 475.6z" stroke="rgba(26, 180, 205, 1)"></path></g><defs><mask id="SvgjsMask1082"><rect width="1440" height="1024" fill="#ffffff"></rect></mask></defs></svg>