<svg xmlns="http://www.w3.org/2000/svg" version="1.1" xmlns:xlink="http://www.w3.org/1999/xlink" xmlns:svgjs="http://svgjs.com/svgjs" width="1440" height="1000" preserveAspectRatio="none" viewBox="0 0 1440 1000"><g mask="url(&quot;#SvgjsMask1131&quot;)" fill="none"><rect width="1440" height="1000" x="0" y="0" fill="rgba(222, 251, 255, 1)"></rect><path d="M0,703.132C134.304,703.153,155.49,489.56,262.27,408.101C355.871,336.696,507.485,358.643,576.549,263.301C647.573,165.254,657.966,26.297,622.752,-89.538C589.08,-200.302,481.678,-266.118,392.986,-340.524C317.193,-404.108,231.77,-445.035,144.178,-491.026C33.191,-549.301,-65.783,-664.527,-189.843,-646.546C-313.574,-628.613,-400.477,-509.963,-464.81,-402.761C-523.127,-305.583,-503.087,-186.08,-531.943,-76.482C-565.79,52.07,-713.538,180.185,-648.877,296.332C-582.273,415.971,-378.231,335.284,-262.216,408.017C-148.418,479.361,-134.313,703.111,0,703.132" fill="#bdf7ff"></path><path d="M1440 1511.9C1540.327 1498.451 1638.329 1492.847 1731.864 1454.149 1841.762 1408.681 1957.326 1364.154 2028.113 1268.5819999999999 2106.509 1162.7359999999999 2161.746 1029.3 2143.111 898.908 2124.4719999999998 768.485 2030.317 660.548 1929.154 576.146 1837.376 499.574 1714.774 487.77200000000005 1602.196 447.61300000000006 1481.474 404.549 1364.268 288.006 1243.755 331.65 1122.037 375.731 1107.842 542.719 1038.222 651.858 980.585 742.212 885.862 812.057 869.719 918.006 853.529 1024.263 914.819 1122.092 951.1610000000001 1223.245 991.067 1334.318 991.4780000000001 1479.7649999999999 1093.107 1539.7759999999998 1195.061 1599.979 1322.648 1527.6309999999999 1440 1511.9" fill="#ffffff"></path></g><defs><mask id="SvgjsMask1131"><rect width="1440" height="1000" fill="#ffffff"></rect></mask></defs></svg>