<svg xmlns="http://www.w3.org/2000/svg" version="1.1" xmlns:xlink="http://www.w3.org/1999/xlink" xmlns:svgjs="http://svgjs.com/svgjs" width="1440" height="1024" preserveAspectRatio="none" viewBox="0 0 1440 1024"><g mask="url(&quot;#SvgjsMask1087&quot;)" fill="none"><rect width="1440" height="1024" x="0" y="0" fill="rgba(220, 238, 255, 1)"></rect><path d="M0,630.095C119.879,632.06,240.182,594.741,335.357,521.826C426.729,451.825,464.672,338.702,515.289,235.325C567.379,128.94,666.602,22.94,635.606,-91.386C604.292,-206.882,454.432,-236.615,365.597,-316.792C290.558,-384.518,246.278,-483.655,154.367,-525.725C55.262,-571.087,-57.179,-579.805,-164.226,-559.302C-278.156,-537.481,-393.629,-494.569,-468.945,-406.344C-544.054,-318.361,-548.239,-195.486,-571.541,-82.175C-596.396,38.686,-656.585,164.309,-609.778,278.476C-562.668,393.381,-435.948,448.912,-328.366,510.948C-225.411,570.315,-118.829,628.147,0,630.095" fill="#c4e3ff"></path><path d="M1440 1529.377C1546.861 1528.199 1658.394 1560.5030000000002 1753.628 1512.0149999999999 1852.325 1461.7640000000001 1931.317 1369.01 1963.254 1262.962 1993.767 1161.645 1923.623 1060.569 1921.445 954.779 1918.8319999999999 827.875 2012.337 692.876 1949.247 582.735 1886.813 473.73900000000003 1739.004 450.751 1616.594 422.576 1499.731 395.678 1372.704 374.13 1264.131 425.04600000000005 1160.114 473.826 1118.031 593.726 1051.665 687.506 992.371 771.293 919.042 845.79 895.651 945.734 871.01 1051.02 877.318 1162.258 917.015 1262.839 957.983 1366.6399999999999 1022.472 1468.306 1121.897 1518.978 1218.374 1568.147 1331.723 1530.57 1440 1529.377" fill="#f4faff"></path></g><defs><mask id="SvgjsMask1087"><rect width="1440" height="1024" fill="#ffffff"></rect></mask></defs></svg>