<svg xmlns="http://www.w3.org/2000/svg" version="1.1" xmlns:xlink="http://www.w3.org/1999/xlink" xmlns:svgjs="http://svgjs.com/svgjs" width="1440" height="560" preserveAspectRatio="none" viewBox="0 0 1440 560"><g mask="url(&quot;#SvgjsMask1002&quot;)" fill="none"><path d="M 0,12 C 32,55.2 96,221.6 160,228 C 224,234.4 256,57.4 320,44 C 384,30.6 416,142 480,161 C 544,180 576,120 640,139 C 704,158 736,271.8 800,256 C 864,240.2 896,74.6 960,60 C 1024,45.4 1056,175.8 1120,183 C 1184,190.2 1216,98.8 1280,96 C 1344,93.2 1408,154.4 1440,169L1440 560L0 560z" fill="rgba(238, 238, 241, 1)"></path><path d="M 0,352 C 96,375.8 288,469.8 480,471 C 672,472.2 768,356.8 960,358 C 1152,359.2 1344,453.2 1440,477L1440 560L0 560z" fill="rgba(243, 249, 255, 1)"></path></g><defs><mask id="SvgjsMask1002"><rect width="1440" height="560" fill="#ffffff"></rect></mask></defs></svg>