<svg xmlns="http://www.w3.org/2000/svg" version="1.1" xmlns:xlink="http://www.w3.org/1999/xlink" xmlns:svgjs="http://svgjs.com/svgjs" width="1000" height="500" preserveAspectRatio="none" viewBox="0 0 1000 500"><g mask="url(&quot;#SvgjsMask1021&quot;)" fill="none"><rect width="1000" height="500" x="0" y="0" fill="rgba(235, 242, 250, 1)"></rect><path d="M0,414.032C77.965,413.023,107.149,307.34,161.729,251.656C202.531,210.029,245.251,174.573,280.335,128.025C324.758,69.088,399.721,16.925,394.121,-56.666C388.564,-129.695,308.73,-171.461,253.855,-219.966C205.661,-262.565,151.934,-292.77,94.423,-321.575C24.356,-356.669,-46.546,-435.589,-119.495,-406.964C-194.389,-377.576,-182.354,-263.418,-226.011,-195.839C-261.295,-141.221,-342.672,-114.929,-349.899,-50.308C-357.136,14.403,-294.992,63.619,-261.258,119.313C-231.751,168.028,-202.222,213.258,-164.442,255.877C-112.951,313.963,-77.617,415.036,0,414.032" fill="#d8e5f5"></path><path d="M1000 779.8330000000001C1058.184 781.461 1117.246 788.827 1170.461 765.242 1228.592 739.479 1282.117 698.6759999999999 1310.967 642.014 1340.348 584.309 1336.966 516.943 1329.646 452.604 1322.145 386.68 1318.114 311.358 1268.353 267.471 1219.134 224.062 1143.969 239.64800000000002 1078.861 231.423 1024.749 224.587 971.252 208.51 918.755 223.305 865.942 238.18900000000002 819.307 270.914 785.469 314.108 752.586 356.084 739.494 408.675 732.164 461.491 724.864 514.094 725.8109999999999 567.075 743.4100000000001 617.181 762.184 670.6320000000001 787.713 725.5409999999999 835.561 755.8720000000001 883.312 786.142 943.485 778.252 1000 779.8330000000001" fill="#feffff"></path></g><defs><mask id="SvgjsMask1021"><rect width="1000" height="500" fill="#ffffff"></rect></mask></defs></svg>